<?xml version="1.0" encoding="utf-8"?>
<!-- Generator: Adobe Illustrator 16.0.0, SVG Export Plug-In . SVG Version: 6.00 Build 0)  -->
<!DOCTYPE svg PUBLIC "-//W3C//DTD SVG 1.1//EN" "http://www.w3.org/Graphics/SVG/1.1/DTD/svg11.dtd">
<svg version="1.1" id="Layer_1" xmlns="http://www.w3.org/2000/svg" xmlns:xlink="http://www.w3.org/1999/xlink" x="0px" y="0px"
	 width="187.4px" height="134.412px" viewBox="0 0 187.4 134.412" enable-background="new 0 0 187.4 134.412" xml:space="preserve">
<g>
	<path fill-rule="evenodd" clip-rule="evenodd" fill="#FFFFFF" d="M0,134.412C0,89.608,0,44.804,0,0c59.605,0,119.21,0,178.815,0
		c0.001,44.804,0.001,89.608,0.001,134.412C119.21,134.412,59.605,134.412,0,134.412z M124.811,117.521c0-1.357,0-2.438,0-3.52
		c0-14.592,0.014-29.184-0.009-43.776c-0.007-4.069,0.529-7.999,2.933-11.411c3.241-4.601,7.517-7.013,13.331-6.063
		c5.426,0.886,8.337,4.395,9.701,9.38c0.574,2.098,0.986,4.314,1.003,6.48c0.116,15.091,0.109,30.182,0.142,45.272
		c0.002,1.163,0,2.326,0,3.572c8.736,0,17.081,0,25.704,0c0-1.218,0-2.294,0-3.37c0-15.792,0.08-31.584-0.057-47.374
		c-0.034-3.967-0.416-8.003-1.245-11.877c-2.069-9.658-6.948-17.708-16.383-21.453c-12.709-5.044-26.58-2.235-36.051,9.068
		c-0.52,0.622-1.086,1.205-1.877,2.077c-0.483-4.15-0.906-7.775-1.32-11.331c-7.59,0-14.836,0-21.692,0c0,28.21,0,56.225,0,84.324
		C107.829,117.521,116.105,117.521,124.811,117.521z M83.004,84.011c1.653-13.773,0.786-26.681-6.964-38.349
		c-1.201-1.808-2.361-3.723-3.904-5.209c-7.624-7.343-17.07-9.749-27.304-9.196C32.096,31.944,21.21,36.31,13.792,47.511
		c-9.02,13.62-11.208,28.31-6.832,43.815c3.938,13.959,13.131,22.914,27.458,26.374c9.594,2.317,19.244,2.229,28.874,0.728
		c5.342-0.834,10.57-2.399,15.962-3.663c-1.305-6.615-2.447-12.412-3.607-18.291c-9.277,3.056-18.319,3.755-27.441,3.046
		c-4.933-0.382-9.551-2.115-13.434-5.354c-3.093-2.58-4.887-5.854-5.18-10.153C47.427,84.011,65.011,84.011,83.004,84.011z"/>
	<path fill-rule="evenodd" clip-rule="evenodd" d="M124.811,117.521c-8.706,0-16.982,0-25.82,0c0-28.1,0-56.114,0-84.324
		c6.856,0,14.103,0,21.692,0c0.414,3.556,0.837,7.181,1.32,11.331c0.791-0.873,1.357-1.456,1.877-2.077
		c9.471-11.304,23.342-14.113,36.051-9.068c9.435,3.745,14.313,11.795,16.383,21.453c0.829,3.875,1.211,7.91,1.245,11.877
		c0.137,15.79,0.057,31.582,0.057,47.374c0,1.076,0,2.152,0,3.37c-8.623,0-16.968,0-25.704,0c0-1.246,0.002-2.409,0-3.572
		c-0.032-15.091-0.025-30.182-0.142-45.272c-0.017-2.166-0.429-4.382-1.003-6.48c-1.364-4.986-4.275-8.495-9.701-9.38
		c-5.814-0.95-10.09,1.461-13.331,6.063c-2.403,3.413-2.939,7.342-2.933,11.411c0.022,14.593,0.009,29.185,0.009,43.776
		C124.811,115.083,124.811,116.164,124.811,117.521z"/>
	<path fill-rule="evenodd" clip-rule="evenodd" d="M83.004,84.011c-17.994,0-35.577,0-53.413,0c0.292,4.3,2.086,7.573,5.18,10.153
		c3.883,3.239,8.5,4.973,13.434,5.354c9.123,0.709,18.165,0.01,27.441-3.046c1.16,5.879,2.303,11.676,3.607,18.291
		c-5.393,1.264-10.62,2.829-15.962,3.663c-9.63,1.502-19.28,1.59-28.874-0.728c-14.326-3.46-23.519-12.415-27.458-26.374
		C2.584,75.821,4.771,61.13,13.792,47.511C21.21,36.31,32.096,31.944,44.832,31.256c10.234-0.552,19.681,1.854,27.304,9.196
		c1.543,1.486,2.703,3.401,3.904,5.209C83.791,57.33,84.658,70.238,83.004,84.011z M29.516,65.792c10.267,0,20.3,0,30.33,0
		c0.025-10.026-5.67-16.862-14.059-17.086C37.201,48.477,30.013,55.974,29.516,65.792z"/>
	<path fill-rule="evenodd" clip-rule="evenodd" fill="#FFFFFF" d="M29.516,65.792c0.497-9.819,7.685-17.315,16.271-17.086
		c8.388,0.224,14.084,7.061,14.059,17.086C49.816,65.792,39.783,65.792,29.516,65.792z"/>
</g>
</svg>
