<?xml version="1.0" encoding="utf-8"?>
<!-- Generator: Adobe Illustrator 16.0.0, SVG Export Plug-In . SVG Version: 6.00 Build 0)  -->
<!DOCTYPE svg PUBLIC "-//W3C//DTD SVG 1.1//EN" "http://www.w3.org/Graphics/SVG/1.1/DTD/svg11.dtd">
<svg version="1.1" id="Layer_1" xmlns="http://www.w3.org/2000/svg" xmlns:xlink="http://www.w3.org/1999/xlink" x="0px" y="0px"
	 width="612px" height="792px" viewBox="0 0 612 792" enable-background="new 0 0 612 792" xml:space="preserve">
<g>
	<path fill-rule="evenodd" clip-rule="evenodd" d="M7,413.96c0-11.331,0-22.664,0-33.996c0.288-1.6,0.728-3.189,0.841-4.801
		c2.951-42.075,13.893-82,34.287-118.876c47.651-86.162,120.083-138.213,217.222-155.38c10.119-1.789,20.406-2.628,30.615-3.907
		c11.332,0,22.665,0,33.996,0c1.623,0.289,3.24,0.622,4.87,0.86c14.812,2.163,29.853,3.304,44.401,6.614
		c160.817,36.587,261.463,194.791,226.844,356.088c-28.536,132.953-144.621,230.773-280.538,236.118
		c-57.455,2.261-111.696-10.17-161.297-39.369C76.539,609.215,27.238,538.126,10.902,444.541C9.136,434.429,8.278,424.157,7,413.96z
		 M307.26,146.863C170.782,146.029,59.78,256.851,56.812,391.148C53.685,532.653,168.58,647.165,306.655,647.216
		c136.762,0.051,247.742-110.455,250.454-244.963C559.962,260.861,445.001,146.145,307.26,146.863z"/>
	<path fill-rule="evenodd" clip-rule="evenodd" fill="#FFFFFF" d="M7,413.96c1.278,10.197,2.136,20.469,3.902,30.581
		c16.336,93.585,65.637,164.674,147.338,212.771c49.602,29.199,103.842,41.63,161.297,39.369
		c135.917-5.345,252.002-103.165,280.538-236.118c34.619-161.297-66.026-319.501-226.844-356.088
		c-14.549-3.31-29.59-4.452-44.401-6.614c-1.63-0.238-3.247-0.571-4.87-0.86c94.655,0,189.31,0,283.965,0
		c0,200.308,0,400.616,0,600.925c-200.309,0-400.617,0-600.925,0C7,603.27,7,508.615,7,413.96z"/>
	<path fill-rule="evenodd" clip-rule="evenodd" fill="#FFFFFF" d="M289.964,97c-10.208,1.279-20.496,2.118-30.615,3.907
		c-97.138,17.167-169.57,69.218-217.222,155.38c-20.395,36.877-31.336,76.802-34.287,118.876c-0.113,1.612-0.553,3.201-0.841,4.801
		C7,285.726,7,191.488,7,97C101.321,97,195.643,97,289.964,97z"/>
	<path fill-rule="evenodd" clip-rule="evenodd" d="M307.26,146.863c137.741-0.718,252.702,113.999,249.85,255.39
		c-2.712,134.508-113.692,245.014-250.454,244.963C168.58,647.165,53.685,532.653,56.812,391.148
		C59.78,256.851,170.782,146.029,307.26,146.863z M445.287,561.913c-0.062-0.64,0.014-1.014-0.135-1.243
		c-21.792-33.822-43.144-67.942-65.602-101.317c-11.086-16.473-24.583-31.151-43.698-39.101c-0.602-0.25-0.957-1.092-1.68-1.964
		c5.09-0.851,9.672-1.563,14.234-2.387c45.309-8.175,71.306-45.975,75.114-77.247c4.608-37.84-18.729-77.317-55.251-89.619
		c-16.866-5.682-34.456-7.595-52.069-7.872c-45.634-0.72-91.277-0.793-136.917-1.103c-0.931-0.007-1.864,0.257-2.69,0.38
		c0,107.351,0,214.36,0,321.307c17.288,0,34.168,0,51.382,0c0-45.519,0-90.622,0-135.847c1.109-0.194,1.911-0.466,2.708-0.455
		c13.156,0.186,26.326,0.098,39.463,0.701c14.711,0.675,27.687,6.09,37.572,17.18c7.842,8.799,15.965,17.649,22.073,27.634
		c17.519,28.633,34.133,57.82,50.929,86.892c1.802,3.117,3.604,4.447,7.303,4.404c17.656-0.204,35.315-0.085,52.975-0.103
		C442.425,562.153,443.852,561.997,445.287,561.913z"/>
	<path fill-rule="evenodd" clip-rule="evenodd" fill="#FFFFFF" d="M445.287,561.913c-1.436,0.084-2.862,0.24-4.289,0.241
		c-17.659,0.018-35.318-0.102-52.975,0.103c-3.698,0.043-5.501-1.287-7.303-4.404c-16.796-29.071-33.41-58.259-50.929-86.892
		c-6.108-9.984-14.231-18.835-22.073-27.634c-9.885-11.09-22.861-16.505-37.572-17.18c-13.137-0.604-26.307-0.516-39.463-0.701
		c-0.797-0.011-1.598,0.261-2.708,0.455c0,45.225,0,90.328,0,135.847c-17.214,0-34.094,0-51.382,0c0-106.947,0-213.957,0-321.307
		c0.827-0.123,1.76-0.387,2.69-0.38c45.64,0.31,91.283,0.383,136.917,1.103c17.613,0.277,35.203,2.19,52.069,7.872
		c36.521,12.301,59.859,51.778,55.251,89.619c-3.809,31.272-29.806,69.072-75.114,77.247c-4.563,0.823-9.145,1.536-14.234,2.387
		c0.723,0.872,1.078,1.714,1.68,1.964c19.115,7.949,32.612,22.628,43.698,39.101c22.458,33.375,43.81,67.495,65.602,101.317
		C445.301,560.899,445.226,561.273,445.287,561.913z M228.27,283.93c0,33.033,0,65.384,0,97.956c3.403,0,6.388,0.034,9.372-0.005
		c22.97-0.303,45.953-0.262,68.903-1.103c9.548-0.351,19.245-1.738,28.498-4.118c37.14-9.552,43.136-52.708,23.032-74.631
		c-10.794-11.769-25.047-16.349-40.321-16.885c-26.441-0.928-52.918-0.868-79.381-1.209
		C235.078,283.893,231.782,283.93,228.27,283.93z"/>
	<path fill-rule="evenodd" clip-rule="evenodd" d="M228.27,283.93c3.512,0,6.808-0.037,10.103,0.005
		c26.463,0.342,52.939,0.281,79.381,1.209c15.274,0.536,29.527,5.116,40.321,16.885c20.104,21.923,14.107,65.08-23.032,74.631
		c-9.253,2.379-18.95,3.767-28.498,4.118c-22.95,0.841-45.933,0.8-68.903,1.103c-2.983,0.039-5.968,0.005-9.372,0.005
		C228.27,349.314,228.27,316.962,228.27,283.93z"/>
</g>
</svg>
