<?xml version="1.0" encoding="utf-8"?>
<!-- Generator: Adobe Illustrator 16.0.0, SVG Export Plug-In . SVG Version: 6.00 Build 0)  -->
<!DOCTYPE svg PUBLIC "-//W3C//DTD SVG 1.1//EN" "http://www.w3.org/Graphics/SVG/1.1/DTD/svg11.dtd">
<svg version="1.1" id="Capa_1" xmlns="http://www.w3.org/2000/svg" xmlns:xlink="http://www.w3.org/1999/xlink" x="0px" y="0px"
	 width="612px" height="792px" viewBox="0 0 612 792" enable-background="new 0 0 612 792" xml:space="preserve">
<g>
	<g>
		<path fill="#949494" d="M269.512,90C120.907,90,0,210.907,0,359.512c0,148.613,120.907,269.512,269.512,269.512
			c148.613,0,269.512-120.898,269.512-269.512C539.023,210.907,418.125,90,269.512,90z M269.512,579.269
			c-121.172,0-219.756-98.583-219.756-219.755s98.583-219.757,219.756-219.757c121.173,0,219.756,98.583,219.756,219.756
			C489.268,480.685,390.685,579.269,269.512,579.269z"/>
	</g>
</g>
<g>
	<g>
		<path fill="#949494" d="M604.711,659.533L462.077,516.898c-9.72-9.719-25.459-9.719-35.179,0c-9.719,9.711-9.719,25.468,0,35.179
			l142.635,142.634c4.858,4.859,11.22,7.289,17.589,7.289c6.36,0,12.729-2.43,17.589-7.289
			C614.43,685,614.43,669.244,604.711,659.533z"/>
	</g>
</g>
</svg>
